<svg width="20" height="20" viewBox="0 0 20 20" fill="none" xmlns="http://www.w3.org/2000/svg">
<path d="M18.9226 9.4098C19.0789 9.56635 19.1666 9.77864 19.1666 10C19.1666 10.2214 19.0789 10.4337 18.9226 10.5902L13.9226 15.599C13.7654 15.7511 13.5549 15.8352 13.3364 15.8333C13.1179 15.8314 12.9089 15.7436 12.7544 15.5888C12.5999 15.4341 12.5122 15.2247 12.5103 15.0058C12.5084 14.7869 12.5924 14.576 12.7442 14.4186L16.3218 10.8348L1.66663 10.8348C1.44562 10.8348 1.23365 10.7468 1.07737 10.5903C0.921089 10.4337 0.833292 10.2214 0.833292 10C0.833292 9.7786 0.921089 9.56627 1.07737 9.40971C1.23365 9.25316 1.44562 9.1652 1.66663 9.1652L16.3218 9.1652L12.7442 5.58141C12.5924 5.42397 12.5084 5.2131 12.5103 4.99422C12.5122 4.77533 12.5999 4.56596 12.7544 4.41118C12.9089 4.2564 13.1179 4.1686 13.3364 4.1667C13.5549 4.1648 13.7654 4.24894 13.9226 4.40101L18.9226 9.4098Z" fill="white"/>
</svg>
