<svg width="20" height="20" viewBox="0 0 20 20" fill="none" xmlns="http://www.w3.org/2000/svg">
<path d="M1.07737 10.5902C0.921138 10.4337 0.833374 10.2214 0.833374 10C0.833374 9.77864 0.921138 9.56635 1.07737 9.4098L6.07741 4.40101C6.23458 4.24894 6.44509 4.1648 6.66359 4.1667C6.88209 4.1686 7.0911 4.2564 7.24561 4.41118C7.40012 4.56595 7.48776 4.77533 7.48966 4.99421C7.49155 5.21309 7.40756 5.42397 7.25576 5.58141L3.67822 9.1652H18.3334C18.5544 9.1652 18.7663 9.25315 18.9226 9.40971C19.0789 9.56626 19.1667 9.7786 19.1667 10C19.1667 10.2214 19.0789 10.4337 18.9226 10.5903C18.7663 10.7468 18.5544 10.8348 18.3334 10.8348H3.67822L7.25576 14.4186C7.40756 14.576 7.49155 14.7869 7.48966 15.0058C7.48776 15.2247 7.40012 15.434 7.24561 15.5888C7.0911 15.7436 6.88209 15.8314 6.66359 15.8333C6.44509 15.8352 6.23458 15.7511 6.07741 15.599L1.07737 10.5902Z" fill="white"/>
</svg>
